<?xml version="1.0" encoding="utf-8"?>
<!-- Generator: Adobe Illustrator 27.5.0, SVG Export Plug-In . SVG Version: 6.00 Build 0)  -->
<svg version="1.1" id="Layer_1" xmlns="http://www.w3.org/2000/svg" xmlns:xlink="http://www.w3.org/1999/xlink" x="0px" y="0px"
	 viewBox="0 0 4000 4000" style="enable-background:new 0 0 4000 4000;" xml:space="preserve">
<g>
	<g>
		<g>
			<rect style="fill:#FFFFFF;" width="4000" height="4000"/>
		</g>
	</g>
	<g>
		<g>
			<g>
				<polyline style="fill:#FFFFFF;" points="2025.475,3279.693 2025.475,2571.261 1458.701,2571.261 				"/>
			</g>
			<g>
				<polygon style="fill:#371A45;" points="2027.975,3279.691 2022.975,3279.691 2022.975,2573.76 1458.702,2573.76 
					1458.702,2568.76 2027.975,2568.76 				"/>
			</g>
		</g>
		<g>
			<circle style="fill:#B980FB;" cx="2000" cy="1945.288" r="1277.079"/>
		</g>
		<g>
			<g>
				<g>
					<path style="fill:#FFFFFF;" d="M2652.409,2828.958l-101.5-257.697l-546.104,78.828l-546.104-78.828l-120.39,305.655
						c0,0,73.527,384.563,646.375,402.09l-0.55,0.687c6.985,0,13.824-0.109,20.67-0.213c6.846,0.104,13.686,0.213,20.67,0.213
						l-0.55-0.687c429.635-13.145,578.403-232.748,625.935-341.728C2665.858,2902.891,2666.158,2863.863,2652.409,2828.958z"/>
				</g>
				<g>
					<path style="fill:#371A45;" d="M2030.704,3282.191h-5.229c-6.694,0-13.257-0.098-19.819-0.195l-0.889-0.015l-0.811,0.015
						c-6.563,0.097-13.125,0.195-19.819,0.195h-5.2l0.679-0.85c-293.604-10.142-452.813-118.701-534.78-208.267
						c-89.429-97.722-108.794-194.722-108.979-195.691l-0.137-0.711l0.269-0.674l121.113-307.495l547.705,79.058l547.705-79.058
						l0.723,1.841l101.499,257.698c14.023,35.593,13.447,75.774-1.582,110.234c-24.517,56.219-74.004,137.908-170.503,207.83
						c-115.039,83.354-267.295,128.843-452.627,135.235L2030.704,3282.191z M1340.909,2877.137
						c1.904,8.865,23.203,100.43,107.822,192.788c81.782,89.263,241.167,197.559,536.03,206.582l5,0.156l-0.41,0.508
						c4.878-0.034,9.702-0.103,14.526-0.176l0.889-0.015l0.967,0.015c4.814,0.073,9.629,0.142,14.497,0.176l-0.415-0.508
						l5.029-0.156c434.81-13.301,581.035-242.363,623.726-340.227c14.497-33.254,15.049-72.036,1.513-106.406l-100.776-255.857
						l-544.502,78.598l-0.356-0.053l-544.145-78.545L1340.909,2877.137z"/>
				</g>
			</g>
			<g>
				<path style="fill:#371A45;" d="M2058.156,3295.311h-32.681c-6.758,0-13.389-0.097-20.015-0.2l-0.889-0.01l-0.42,0.01
					c-6.626,0.103-13.257,0.2-20.015,0.2h-32.5l1.616-2.021c-281.694-15.625-436.89-122.617-518.096-211.357
					c-91.919-100.442-111.401-197.981-112.188-202.085l-0.85-4.446l126.577-321.367l556.108,80.273l556.109-80.273l106.025,269.199
					c15.293,38.813,14.648,82.656-1.763,120.288c-25.171,57.715-75.938,141.55-174.829,213.21
					c-111.733,80.957-257.559,126.841-433.823,136.558L2058.156,3295.311z M1354.615,2878.146
					c4.746,19.16,28.589,101.355,104.854,184.075c114.878,124.599,296.66,194.165,525.693,201.172l16.65,0.513
					c0.62-0.01,1.245-0.02,1.87-0.029l0.889-0.015l1.358,0.015c0.62,0.01,1.245,0.02,1.865,0.029l16.65-0.513
					c411.939-12.603,560.318-213.643,612.1-332.358c13.115-30.081,13.604-65.2,1.333-96.35l-96.973-246.196l-536.099,77.383
					l-536.099-77.383L1354.615,2878.146z"/>
			</g>
		</g>
		<g>
			<g>
				<g>
					<rect x="1637.921" y="2656.239" style="fill:#FFFFFF;" width="782.727" height="45.289"/>
				</g>
				<g>
					<path style="fill:#371A45;" d="M2423.146,2704.027h-787.725v-50.288h787.725V2704.027z M1640.421,2699.027h777.725v-40.288
						h-777.725V2699.027z"/>
				</g>
			</g>
			<g>
				<rect x="1570.883" y="2433.712" style="fill:#371A45;" width="831.692" height="222.527"/>
			</g>
			<g>
				<polygon style="fill:#371A45;" points="2354.371,2711.626 2494.173,2731.198 2554.676,2406.815 2490.009,2356.403 
					2426.618,2384.166 2422.916,2448.02 2405.333,2466.857 2386.786,2478.682 				"/>
			</g>
			<g>
				<polygon style="fill:#371A45;" points="1643.584,2711.653 1568.681,2722.147 1503.772,2731.198 1453.189,2460.179 
					1444.583,2413.983 1443.25,2406.82 1507.937,2356.403 1538.753,2369.896 1571.291,2384.166 1575.011,2448.02 1592.613,2466.843 
					1611.158,2478.669 				"/>
			</g>
			<g>
				<g>
					<path style="fill:#FFFFFF;" d="M1634.923,2652.074c0,0-59.864-0.222-87.539,42.227l96.201,23.152L1634.923,2652.074z"/>
				</g>
				<g>
					<path style="fill:#371A45;" d="M1646.544,2720.736l-103.188-24.834l1.934-2.966c28.096-43.098,87.061-43.51,89.644-43.362
						l2.183,0.007L1646.544,2720.736z M1551.505,2692.721l89.121,21.448l-7.886-59.531
						C1622.179,2655.118,1575.812,2659.139,1551.505,2692.721z"/>
				</g>
			</g>
			<g>
				<g>
					<path style="fill:#FFFFFF;" d="M2363.136,2652.074c0,0,59.864-0.222,87.539,42.227l-96.201,23.152L2363.136,2652.074z"/>
				</g>
				<g>
					<path style="fill:#371A45;" d="M2351.515,2720.736l9.429-71.155l2.183-0.007c2.544-0.107,61.543,0.261,89.644,43.362
						l1.934,2.966L2351.515,2720.736z M2365.319,2654.637l-7.886,59.531l89.121-21.448
						C2422.247,2659.139,2375.88,2655.118,2365.319,2654.637z"/>
				</g>
			</g>
			<g>
				<g>
					<path style="fill:#371A45;" d="M2327.747,1241.396c294.49-281.824,770.322,116.684,366.683,456.776"/>
				</g>
				<g style="opacity:0.55;">
					<g>
						<path style="fill:#FFFFFF;" d="M2845.137,1469.576c1.792-221.46-284.428-373.024-496.798-202.518l-20.593-25.664
							C2556.429,1022.578,2894.367,1213.879,2845.137,1469.576z"/>
					</g>
					<g>
						<path style="fill:#371A45;" d="M2847.594,1470.05l-4.956-0.493c0.82-101.584-60.186-194.5-159.219-242.483
							c-109.839-53.215-234.521-37.544-333.511,41.934l-1.953,1.567l-23.594-29.402l1.655-1.584
							c106.738-102.136,254.971-124.971,377.627-58.142C2813.336,1241.204,2869.84,1354.488,2847.594,1470.05z M2549.85,1190.921
							c45.913,0,91.982,10.447,135.752,31.653c91.895,44.526,151.621,127.153,160.806,219.866
							c9.063-103.87-45.874-202.517-145.156-256.604c-120.068-65.403-265.098-43.474-370.117,55.786l17.598,21.929
							C2409.4,1215.506,2479.43,1190.921,2549.85,1190.921z"/>
					</g>
				</g>
				<g>
					<path style="fill:#371A45;" d="M2704.493,1710.118l-20.127-23.892c114.809-96.736,166.445-207.886,145.4-312.976
						c-18.359-91.68-90.181-167.642-187.432-198.245c-106.465-33.506-217.197-5.193-303.789,77.673l-21.602-22.568
						c95.078-90.986,217.09-121.929,334.766-84.905c108.125,34.023,188.091,119.055,208.686,221.912
						C2883.785,1483.89,2828.419,1605.704,2704.493,1710.118z"/>
				</g>
				<g>
					<path style="fill:#371A45;" d="M1653.381,1234.344C1333.903,905.3,916.49,1397.286,1309.878,1684.53"/>
				</g>
				<g style="opacity:0.55;">
					<g>
						<path style="fill:#FFFFFF;" d="M1653.385,1234.329l-18.552,24.307c-215.304-199.011-466.52-41.541-484.182,168.254
							C1135.058,1191.262,1420.272,994.264,1653.385,1234.329z"/>
					</g>
					<g>
						<path style="fill:#371A45;" d="M1153.141,1427.1l-4.985-0.044c-7.813-118.054,61.89-233.923,169.497-281.77
							c112.192-49.883,235.215-18.066,337.524,87.302l1.504,1.545l-21.523,28.203l-2.021-1.865
							c-92.349-85.366-202.49-112.134-302.168-73.433C1231.984,1225.474,1162.184,1319.703,1153.141,1427.1z M1424.117,1127.242
							c-35.239,0-70.347,7.456-104.433,22.615c-95.415,42.422-160.493,139.28-166.646,243.03
							c19.502-94.929,85.903-175.476,176.123-210.508c100.791-39.131,211.953-12.673,305.347,72.563l15.581-20.413
							C1580.86,1163.87,1502.198,1127.242,1424.117,1127.242z"/>
					</g>
				</g>
				<g>
					<g>
						<path style="fill:#FFFFFF;" d="M2735.888,1896.68c-3.76,415.319-330.614,571.817-732.027,568.183
							c-401.414-3.634-725.38-166.023-721.621-581.343s332.218-749.056,733.632-745.422
							C2417.286,1141.731,2739.648,1481.36,2735.888,1896.68z"/>
					</g>
					<g>
						<path style="fill:#371A45;" d="M2017.247,2467.423c-4.463,0-8.921-0.019-13.413-0.061
							c-213.315-1.931-391.113-49.219-514.17-136.751c-141.074-100.347-211.699-250.776-209.922-447.114
							c3.745-413.774,330.493-747.93,729.668-747.93c2.183,0,4.297,0.01,6.484,0.029c402.149,3.643,726.26,345.073,722.495,761.106
							c-1.777,196.338-75.117,345.464-217.983,443.24C2398.405,2423.436,2224.635,2467.423,2017.247,2467.423z M2009.415,1140.567
							c-396.479,0-720.952,331.919-724.673,742.974c-1.763,194.609,68.159,343.652,207.817,442.996
							c122.222,86.936,299.033,133.904,511.323,135.825c212.197,2.026,389.922-41.836,513.701-126.545
							c141.436-96.797,214.043-244.551,215.806-439.158l2.5,0.022l-2.5-0.022c3.74-413.276-318.145-752.446-717.544-756.062
							C2013.702,1140.577,2011.554,1140.567,2009.415,1140.567z"/>
					</g>
				</g>
				<g style="opacity:0.3;">
					<path style="fill:#371A45;" d="M2735.873,1896.698c-3.725,415.309-330.605,571.774-732.015,568.148
						c-401.41-3.626-725.368-165.982-721.642-581.342c0.353-38.423,3.475-76.092,9.166-112.904
						c55.294,325.973,352.813,456.654,712.476,459.927c364.496,3.273,667.557-125.444,723.002-460.128
						C2733.154,1811.491,2736.276,1853.692,2735.873,1896.698z"/>
				</g>
				<g>
					<path style="fill:#371A45;" d="M2017.228,2480.543c-4.492,0-8.989-0.02-13.511-0.061
						c-216.016-1.956-396.401-50.083-521.66-139.18c-144.771-102.976-217.251-257.046-215.435-457.925
						c3.813-420.967,336.426-760.93,742.788-760.93c2.222,0,4.38,0.01,6.602,0.029c409.385,3.708,739.331,351.077,735.498,774.346
						c-1.821,200.879-77.08,353.608-223.691,453.948C2403.619,2435.768,2227.286,2480.543,2017.228,2480.543z M2009.415,1153.687
						c-389.297,0-707.896,326.113-711.553,729.973c-1.719,190.066,66.343,335.474,202.305,432.182
						c120.02,85.374,294.243,131.501,503.833,133.399c4.424,0.042,8.872,0.061,13.271,0.061
						c203.726,0,373.921-42.885,492.901-124.314c137.69-94.233,208.379-238.384,210.098-428.45l15.62,0.142l-15.62-0.142
						c3.677-406.042-312.378-739.272-704.541-742.822C2013.624,1153.697,2011.515,1153.687,2009.415,1153.687z"/>
				</g>
				<g>
					<path style="fill:#371A45;" d="M1300.665,1697.144c-123.594-90.247-182.749-213.079-162.295-337.002
						c18.428-111.653,98.496-205.144,203.984-238.184c108.994-34.141,226.45,2.856,322.231,101.504l-22.412,21.763
						c-88.55-91.201-191.724-124.392-290.483-93.455c-94.336,29.548-165.972,113.335-182.495,213.459
						c-18.467,111.863,36.172,223.645,149.892,306.685L1300.665,1697.144z"/>
				</g>
				<g>
					<g>
						<path style="fill:#FFFFFF;" d="M1933.101,1194.004c36.008-222.521,251.068-143.63,152.42-8.692"/>
					</g>
					<g>
						<path style="fill:#371A45;" d="M1935.568,1194.405l-4.932-0.801c12.505-77.297,49.629-129.651,99.302-140.042
							c29.639-6.199,58.442,4.766,73.394,27.942c18.223,28.254,12.471,66.628-15.791,105.281l-4.033-2.949
							c26.968-36.892,32.661-73.203,15.62-99.622c-13.818-21.421-40.601-31.516-68.164-25.759
							C1983.395,1068.407,1947.735,1119.229,1935.568,1194.405z"/>
					</g>
				</g>
				<g>
					<g>
						<path style="fill:#FFFFFF;" d="M2104.477,1151.399c104.342-95.585,192.038,47.184,39.826,77.251"/>
					</g>
					<g>
						<path style="fill:#371A45;" d="M2144.786,1231.104l-0.967-4.907c45.806-9.048,75.498-30.366,79.429-57.029
							c2.471-16.753-6.299-33.079-22.344-41.589c-26.465-14.045-61.875-4.441-94.736,25.664l-3.379-3.687
							c34.497-31.606,72.046-41.467,100.459-26.396c17.939,9.517,27.729,27.864,24.946,46.738
							C2223.942,1198.746,2192.765,1221.627,2144.786,1231.104z"/>
					</g>
				</g>
				<g>
					<path style="fill:#371A45;" d="M2191.384,1200.146c9.214,3.359,18.45,6.877,27.29,12.11
						c8.821,5.097,17.515,11.158,24.934,19.445c7.351,8.18,13.794,18.38,16.333,30.486c2.559,11.942,1.418,25.445-4.749,36.669
						c-11.714,23.091-40.681,34.035-63.367,28.16c-11.396-2.765-21.101-8.721-28.616-16.01c-1.804-1.896-3.56-3.817-5.215-5.794
						c-1.638-1.982-2.991-4.167-4.338-6.331l-1.975-3.234l-1.584-3.479c-1.03-2.313-1.909-4.712-2.646-7.156
						c-0.908-3.017,0.801-6.198,3.818-7.106c1.243-0.375,2.515-0.305,3.643,0.118l0.393,0.147
						c9.116,3.414,16.509,7.328,23.779,10.167c7.192,2.852,13.782,5.043,19.888,6.16c6.021,1.094,11.848,1.722,16.953-0.144
						l1.907-0.668c0.613-0.267,1.14-0.671,1.731-0.972c1.243-0.539,2.151-1.506,3.235-2.253c1.812-1.851,3.674-3.738,4.729-6.119
						c4.954-9.15,2.4-21.542-7.051-31.644c-9.302-10.224-23.794-17.662-39.036-22.938l-0.515-0.178
						c-8.152-2.822-12.473-11.718-9.651-19.871c2.82-8.152,11.716-12.474,19.871-9.653
						C2191.199,1200.08,2191.331,1200.127,2191.384,1200.146z"/>
				</g>
				<g>
					<path style="fill:#371A45;" d="M1927.961,1193.173c-0.376-4.026-0.61-8.071-0.674-12.114
						c-0.024-4.041-0.261-8.135,0.212-12.145c0.815-8.038,1.414-16.218,3.525-24.152c0.894-4.007,1.794-8.022,2.966-11.982
						c1.372-3.903,2.7-7.847,4.204-11.726c1.353-3.928,3.271-7.7,5.125-11.478c1.924-3.745,3.662-7.587,6.113-11.116
						c8.77-14.57,20.806-27.595,35.117-38.03c14.197-10.483,31.123-18.401,49.529-20.746l6.892-0.798l6.992-0.013
						c4.658-0.201,9.329,0.761,13.982,1.288c9.194,1.974,18.43,4.752,26.638,9.862c16.875,9.301,29.48,26.272,34.924,44.615
						c5.19,18.577,3.467,37.746-1.826,54.497c-5.313,16.886-13.896,31.781-23.55,45.397c-4.99,7.037-14.739,8.697-21.775,3.708
						c-7.036-4.988-8.696-14.737-3.708-21.774l0.264-0.371c8.135-11.498,15-23.673,18.933-36.224
						c3.97-12.51,4.739-25.286,1.66-36.527c-1.926-5.421-4.055-10.839-7.81-15.156c-1.499-2.446-3.904-4.124-5.771-6.276
						c-2.415-1.57-4.404-3.703-7.092-4.911c-4.875-3.17-10.696-4.753-16.465-6.102c-3.003-0.225-5.925-1.021-8.999-0.792
						l-4.563-0.035l-4.583,0.576c-12.224,1.551-24.333,6.785-34.546,15.048c-10.325,8.152-18.723,18.923-26.101,30.554
						c-15.278,23.13-25.974,50.152-39.333,78.586l-0.059,0.125c-1.265,2.688-4.468,3.843-7.156,2.58
						C1929.246,1196.702,1928.137,1195.001,1927.961,1193.173z"/>
				</g>
				<g>
					<path style="fill:#371A45;" d="M2144.288,1244.273c-7.309,0-13.838-5.154-15.307-12.595
						c-1.675-8.464,3.833-16.68,12.295-18.352c47.237-9.331,66.612-29.917,68.994-46.072c1.675-11.36-4.272-22.122-15.513-28.086
						c-16.465-8.74-46.065-7.087-79.727,23.75c-6.357,5.83-16.24,5.393-22.07-0.967c-5.825-6.362-5.396-16.243,0.967-22.07
						c38.769-35.518,81.938-46.106,115.469-28.311c22.91,12.153,35.386,35.798,31.782,60.242
						c-2.451,16.606-16.494,56.882-93.848,72.163C2146.31,1244.176,2145.289,1244.273,2144.288,1244.273z"/>
				</g>
				<g>
					<path style="fill:#371A45;" d="M2082.459,1766.644c-0.336,37.166-37.711,87.209-83.252,86.796s-82.003-51.124-81.667-88.289
						c0.336-37.166,37.345-46.776,82.886-46.364C2045.967,1719.199,2082.796,1729.478,2082.459,1766.644z"/>
				</g>
				<g>
					<path style="fill:#371A45;" d="M2017.617,1828.419l-12.871,64.094c-0.559,2.776-3.262,4.575-6.038,4.017
						c-2.117-0.425-3.665-2.109-4.036-4.108l-11.709-64.316c-1.746-9.586,4.609-18.772,14.197-20.518
						c9.585-1.746,18.772,4.611,20.518,14.197C2018.086,1824.028,2018.035,1826.309,2017.617,1828.419z"/>
				</g>
				<g>
					<path style="fill:#371A45;" d="M1886.597,1617.128c-73.75,59.382-116.727,149.775-136.524,263.529
						c-5.547,31.871-30.559,56.721-62.324,62.843c-159.881,30.81-281.497-142.924-201.396-335.474
						c105.415-249.19,368.725-219.135,423.476-78.675C1921.94,1560.421,1912.571,1596.214,1886.597,1617.128z"/>
				</g>
				<g>
					<path style="fill:#FFFFFF;" d="M1608.315,1670.005c0.471-20.841,7.383-42.297,21.689-60.233
						c7.212-8.837,16.313-16.771,27.178-22.272c10.781-5.571,23.254-8.77,35.823-8.568c12.563,0.2,24.963,3.677,35.593,9.539
						c10.674,5.873,19.438,14.074,26.287,23.095c13.767,18.181,19.873,39.454,21.028,59.949c0.183,3.282-2.327,6.093-5.61,6.277
						c-2.346,0.132-4.453-1.115-5.53-3.038l-0.137-0.246c-4.739-8.5-9.277-16.646-14.434-24.078
						c-5.117-7.448-10.854-14.044-16.926-19.641c-12.214-11.262-26.411-17.303-40.352-17.07
						c-13.948,0.321-27.854,6.613-40.205,17.36c-12.537,10.712-22.705,25.6-33.179,42.108l-0.115,0.181
						c-1.782,2.809-5.505,3.641-8.315,1.859C1609.268,1674.058,1608.276,1672.041,1608.315,1670.005z"/>
				</g>
				<g>
					<path style="fill:#371A45;" d="M2131.531,1617.128c73.75,59.382,116.727,149.775,136.524,263.529
						c5.546,31.871,30.559,56.721,62.324,62.843c159.881,30.81,281.497-142.924,201.396-335.474
						c-105.415-249.19-368.725-219.135-423.476-78.675C2096.188,1560.421,2105.557,1596.214,2131.531,1617.128z"/>
				</g>
				<g>
					<path style="fill:#FFFFFF;" d="M2398.589,1673.188c-10.476-16.508-20.642-31.395-33.179-42.108
						c-12.354-10.747-26.26-17.039-40.208-17.36c-13.94-0.234-28.137,5.807-40.349,17.07c-6.072,5.596-11.809,12.193-16.926,19.641
						c-5.159,7.432-9.697,15.578-14.436,24.078l-0.132,0.24c-1.602,2.871-5.227,3.901-8.098,2.301
						c-2.056-1.146-3.164-3.334-3.044-5.534c1.152-20.495,7.258-41.768,21.028-59.949c6.848-9.021,15.61-17.222,26.284-23.095
						c10.63-5.862,23.03-9.339,35.596-9.539c12.566-0.202,25.039,2.997,35.82,8.568c10.864,5.501,19.968,13.434,27.178,22.272
						c14.309,17.936,21.221,39.392,21.689,60.233c0.076,3.326-2.561,6.084-5.886,6.159c-2.185,0.049-4.124-1.07-5.217-2.786
						L2398.589,1673.188z"/>
				</g>
			</g>
			<g>
				<g style="opacity:0.8;">
					<path style="fill:#85D1FF;" d="M2388.431,2466.857l-95.339,685.152c-7.926,56.997-51.697,102.595-108.411,112.245
						c-53.086,9.058-106.146,14.204-159.206,15.44c-49.612,1.184-99.199-1.055-148.811-6.716
						c-20.457-2.316-40.889-5.224-61.346-8.723c-56.714-9.649-100.485-55.248-108.411-112.245l-95.339-685.152H2388.431z"/>
				</g>
				<g>
					<path style="fill:#EAA549;" d="M2297.158,2749.374c15.491-177.013-185.222-130.695-324.291-78.854
						C1972.867,2670.519,2156.865,2859.483,2297.158,2749.374z"/>
				</g>
				<g style="opacity:0.3;">
					<path style="fill:#371A45;" d="M2297.158,2749.374c15.491-177.013-185.222-130.695-324.291-78.854
						C1972.867,2670.519,2156.865,2859.483,2297.158,2749.374z"/>
				</g>
				<g>
					<path style="fill:#371A45;" d="M2178.165,2651.18c35.537,0,60.84,7.951,75.205,23.63
						c11.992,13.086,17.725,33.225,17.085,59.961c-21.86,14.495-45.63,21.563-72.314,21.563
						c-66.377,0-133.228-44.263-171.948-75.315C2086.608,2661.427,2138.561,2651.18,2178.165,2651.18 M2178.165,2623.683
						c-63.252,0-140.884,22.822-205.298,46.836c0,0,110.342,113.316,225.274,113.316c33.491,0,67.363-9.615,99.018-34.461
						C2305.475,2654.351,2251.476,2623.683,2178.165,2623.683L2178.165,2623.683z"/>
				</g>
				<g>
					<g>
						<path style="fill:#FF1D63;" d="M2058.135,2911.015h-116.27v-913.674c0-14.49,11.746-26.236,26.236-26.236h63.797
							c14.49,0,26.236,11.746,26.236,26.236V2911.015z"/>
					</g>
					<g>
						<path style="fill:#FF1D63;" d="M2058.135,2911.015h-116.27v-913.674c0-14.49,11.746-26.236,26.236-26.236h63.797
							c14.49,0,26.236,11.746,26.236,26.236V2911.015z"/>
					</g>
					<g style="opacity:0.3;">
						<path style="fill:#371A45;" d="M2058.13,2462.997v448.027h-40.297v-295.375c0-29.384-19.328-55.267-47.501-63.613
							l-26.943-7.981v-81.057H2058.13z"/>
					</g>
					<g style="opacity:0.3;">
						<path style="fill:#371A45;" d="M2058.13,1997.334v465.664h-40.297v-465.664c0-14.487-11.76-26.221-26.247-26.221h40.323
							C2046.396,1971.112,2058.13,1982.846,2058.13,1997.334z"/>
					</g>
					<g style="opacity:0.55;">
						<path style="fill:#FFFFFF;" d="M1999.709,1971.112c-14.487,0-26.247,11.734-26.247,26.221v464.599h-23.597v-464.599
							c0-14.487,11.734-26.221,26.221-26.221H1999.709z"/>
					</g>
					<g>
						<path style="fill:#371A45;" d="M2073.756,2926.634h-147.51v-929.292c0-23.081,18.774-41.858,41.855-41.858h63.799
							c23.081,0,41.856,18.777,41.856,41.858V2926.634z M1957.486,2895.394h85.029v-898.052c0-5.854-4.761-10.618-10.615-10.618
							h-63.799c-5.854,0-10.615,4.763-10.615,10.618V2895.394z"/>
					</g>
					<g style="opacity:0.3;">
						<g>
							<polygon style="fill:#7A2938;" points="2058.541,2462.997 2058.541,2578.15 2058.13,2578.021 2058.13,2462.997 							"/>
						</g>
						<g>
							<polygon style="fill:#371A45;" points="2061.041,2581.561 2056.041,2579.984 2055.631,2578.021 2055.631,2460.497 
								2060.631,2460.497 2061.041,2462.997 							"/>
						</g>
					</g>
				</g>
				<g>
					<path style="fill:#EAA549;" d="M2292.789,2756.374l-54.237,389.754c-4.818,34.637-30.986,61.794-65.116,67.625
						c-57.584,9.813-115.93,14.783-173.464,14.783s-115.879-4.97-173.464-14.783c-34.13-5.832-60.298-32.989-65.116-67.625
						l-57.242-411.342c-3.585-25.763,7.543-51.504,29.024-66.174C1930.504,2533.851,2085.392,2854.413,2292.789,2756.374z"/>
				</g>
				<g style="opacity:0.55;">
					<path style="fill:#FFFFFF;" d="M2297.158,2769.374l-4.58,32.835c-196.776,60.703-348.829-230.537-540.175-99.868
						c-21.795,14.899-13.092,21.017-9.464,47.162l58.104,417.431c1.827,13.149,6.716,25.243,13.896,35.562
						c-19.788-12.377-33.658-33.143-37.055-57.589l-58.104-417.431c-3.628-26.144-12.332-32.289,9.464-47.162
						C1929.493,2543.546,2086.692,2868.855,2297.158,2769.374z"/>
				</g>
				<g>
					<path style="fill:#371A45;" d="M1832.97,2626.2v27.5c56.216,0,112.363,32.165,171.807,66.221
						c65.391,37.466,133.013,76.206,208.882,76.206c16.841,0,33.564-1.98,50.054-5.913l-48.833,350.906
						c-3.228,23.208-20.698,41.416-43.462,45.305c-56.88,9.695-114.555,14.612-171.416,14.612
						c-56.86,0-114.536-4.917-171.406-14.609c-22.773-3.892-40.244-22.1-43.477-45.31l-58.091-417.439
						c-2.202-15.84,4.756-31.799,17.725-40.656c28.892-19.729,57.744-29.321,88.213-29.321L1832.97,2626.2 M1832.965,2626.2
						c-33.564,0-67.959,9.688-103.721,34.111c-21.797,14.888-33.091,41.008-29.453,67.156l58.091,417.439
						c4.893,35.151,31.445,62.71,66.084,68.628c58.438,9.961,117.647,15.002,176.035,15.002c58.384,0,117.598-5.042,176.035-15.002
						c34.634-5.918,61.191-33.477,66.079-68.628l55.044-395.532c-28.75,13.591-56.489,19.253-83.501,19.253
						C2078.263,2768.626,1961.676,2626.197,1832.965,2626.2L1832.965,2626.2z M2297.159,2749.373h0.025H2297.159z"/>
				</g>
				<g>
					<path style="fill:#FFCE00;" d="M2395.972,2466.857h-791.945c-18.306,0-33.145-14.84-33.145-33.145v-53.794
						c0-18.305,14.839-33.145,33.145-33.145h791.945c18.305,0,33.145,14.84,33.145,33.145v53.794
						C2429.117,2452.018,2414.278,2466.857,2395.972,2466.857z"/>
				</g>
				<g style="opacity:0.3;">
					<path style="fill:#371A45;" d="M2429.114,2379.907v53.807c0,18.296-14.848,33.143-33.144,33.143h-130.746
						c18.296,0,33.143-14.848,33.143-33.143v-53.807c0-18.296-14.848-33.143-33.143-33.143h130.746
						C2414.266,2346.764,2429.114,2361.612,2429.114,2379.907z"/>
				</g>
				<g>
					<path style="fill:#FFCE00;" d="M2374.239,2346.79h-748.479l37.535-98.557c6.608-17.323,23.209-28.762,41.699-28.762h590.01
						c18.49,0,35.092,11.438,41.699,28.762L2374.239,2346.79z"/>
				</g>
				<g style="opacity:0.55;">
					<path style="fill:#FFFFFF;" d="M1748.916,2219.471c-18.49,0-35.092,11.438-41.699,28.762l-37.535,98.557h-43.921l37.535-98.557
						c6.608-17.323,23.209-28.762,41.699-28.762H1748.916z"/>
				</g>
				<g style="opacity:0.35;">
					<path style="fill:#FFFFFF;" d="M1924.224,2219.471c-18.49,0-35.092,11.438-41.699,28.762l-37.535,98.557h-83.538l37.535-98.557
						c6.608-17.323,23.209-28.762,41.699-28.762H1924.224z"/>
				</g>
				<g style="opacity:0.55;">
					<path style="fill:#FFFFFF;" d="M1649.499,2466.857h-45.469c-18.296,0-33.143-14.848-33.143-33.143v-53.807
						c0-18.296,14.848-33.143,33.143-33.143h45.469c-18.321,0-33.169,14.848-33.169,33.143v53.807
						C1616.33,2452.01,1631.177,2466.857,1649.499,2466.857z"/>
				</g>
				<g style="opacity:0.35;">
					<path style="fill:#FFFFFF;" d="M1888.408,2466.862h-97.616c-18.296,0-33.143-14.848-33.143-33.143v-53.807
						c0-18.296,14.848-33.143,33.143-33.143h97.616c-18.321,0-33.169,14.848-33.169,33.143v53.807
						C1855.24,2452.014,1870.087,2466.862,1888.408,2466.862z"/>
				</g>
				<g>
					<path style="fill:#371A45;" d="M2395.973,2482.476H1604.03c-26.89,0-48.765-21.875-48.765-48.764v-53.794
						c0-26.889,21.875-48.764,48.765-48.764h791.943c26.89,0,48.765,21.875,48.765,48.764v53.794
						C2444.738,2460.601,2422.863,2482.476,2395.973,2482.476z M1604.03,2362.393c-9.663,0-17.525,7.862-17.525,17.524v53.794
						c0,9.663,7.861,17.524,17.525,17.524h791.943c9.663,0,17.524-7.861,17.524-17.524v-53.794c0-9.663-7.861-17.524-17.524-17.524
						H1604.03z"/>
				</g>
				<g>
					<g>
						<circle style="fill:#964557;" cx="1935.411" cy="3091.127" r="56.611"/>
					</g>
					<g style="opacity:0.55;">
						<path style="fill:#FFFFFF;" d="M1957.451,3048.578c-9.65,0-18.759,2.419-26.71,6.691c2.908,0.463,5.455,1.75,7.359,3.885
							c5.507,6.201,3.242,17.215-5.069,24.626c-8.337,7.385-19.531,8.363-25.038,2.162c-1.004-1.132-1.75-2.419-2.239-3.808
							c-3.165,7.025-4.915,14.848-4.915,23.056c0,15.208,5.996,29.026,15.774,39.216c-17.807-9.547-29.927-28.331-29.927-49.946
							c0-31.265,25.346-56.611,56.611-56.611c16.057,0,30.544,6.69,40.837,17.421
							C1976.184,3050.997,1967.1,3048.578,1957.451,3048.578z"/>
					</g>
					<g>
						<path style="fill:#371A45;" d="M1935.411,3158.841c-37.339,0-67.715-30.376-67.715-67.715
							c0-37.339,30.376-67.717,67.715-67.717c37.339,0,67.715,30.378,67.715,67.717
							C2003.126,3128.465,1972.75,3158.841,1935.411,3158.841z M1935.411,3045.618c-25.093,0-45.508,20.415-45.508,45.508
							c0,25.093,20.415,45.508,45.508,45.508c25.093,0,45.508-20.415,45.508-45.508
							C1980.919,3066.034,1960.504,3045.618,1935.411,3045.618z"/>
					</g>
				</g>
				<g>
					<g>
						
							<ellipse transform="matrix(0.2298 -0.9732 0.9732 0.2298 -1205.4822 4082.1125)" style="fill:#964557;" cx="1976.245" cy="2802.653" rx="56.611" ry="56.611"/>
					</g>
					<g style="opacity:0.55;">
						<path style="fill:#FFFFFF;" d="M1994.907,2760.104c-9.65,0-18.759,2.419-26.71,6.691c2.908,0.463,5.455,1.75,7.36,3.886
							c5.507,6.201,3.242,17.215-5.069,24.626c-8.337,7.385-19.531,8.363-25.038,2.161c-1.004-1.132-1.75-2.419-2.239-3.808
							c-3.165,7.025-4.915,14.848-4.915,23.056c0,15.208,5.996,29.026,15.774,39.216c-17.807-9.547-29.927-28.332-29.927-49.947
							c0-31.265,25.346-56.611,56.611-56.611c16.057,0,30.544,6.69,40.837,17.421
							C2013.64,2762.523,2004.557,2760.104,1994.907,2760.104z"/>
					</g>
					<g>
						<path style="fill:#371A45;" d="M1976.246,2870.369c-37.339,0-67.715-30.378-67.715-67.717
							c0-37.339,30.376-67.717,67.715-67.717c37.339,0,67.715,30.379,67.715,67.717
							C2043.961,2839.991,2013.585,2870.369,1976.246,2870.369z M1976.246,2757.147c-25.093,0-45.508,20.413-45.508,45.505
							c0,25.093,20.415,45.506,45.508,45.506c25.093,0,45.508-20.413,45.508-45.506
							C2021.754,2777.559,2001.339,2757.147,1976.246,2757.147z"/>
					</g>
				</g>
				<g>
					<g>
						<ellipse style="fill:#964557;" cx="1843.625" cy="2914.347" rx="56.471" ry="56.611"/>
					</g>
					<g style="opacity:0.55;">
						<path style="fill:#FFFFFF;" d="M1859.472,2868.476c-9.626,0-18.712,2.419-26.644,6.691c2.901,0.463,5.442,1.75,7.341,3.886
							c5.493,6.201,3.234,17.215-5.057,24.626c-8.317,7.385-19.482,8.363-24.975,2.161c-1.001-1.132-1.745-2.419-2.233-3.808
							c-3.157,7.025-4.903,14.848-4.903,23.056c0,15.208,5.981,29.026,15.735,39.216c-17.762-9.547-29.852-28.332-29.852-49.947
							c0-31.265,25.283-56.611,56.47-56.611c16.017,0,30.468,6.69,40.736,17.421
							C1878.158,2870.895,1869.097,2868.476,1859.472,2868.476z"/>
					</g>
					<g>
						<path style="fill:#371A45;" d="M1843.624,2982.064c-37.261,0-67.573-30.378-67.573-67.717
							c0-37.339,30.313-67.717,67.573-67.717s67.573,30.378,67.573,67.717C1911.197,2951.685,1880.885,2982.064,1843.624,2982.064z
							 M1843.624,2868.841c-25.015,0-45.366,20.413-45.366,45.505c0,25.093,20.351,45.505,45.366,45.505
							s45.366-20.413,45.366-45.505C1888.99,2889.254,1868.639,2868.841,1843.624,2868.841z"/>
					</g>
				</g>
				<g style="opacity:0.25;">
					<path style="fill:#FFFFFF;" d="M1876.755,3131.694c-0.496-0.025-0.992-0.05-1.488-0.076
						c-38.043-1.968-68.267-32.725-69.627-70.795l-21.227-593.971h148.528l21.08,588.794
						C1955.564,3098.75,1919.833,3133.862,1876.755,3131.694z"/>
				</g>
				<g>
					<g>
						
							<ellipse transform="matrix(0.7071 -0.7071 0.7071 0.7071 -1478.3481 2325.012)" style="fill:#964557;" cx="2067.364" cy="2947.03" rx="40.832" ry="40.832"/>
					</g>
					<g style="opacity:0.55;">
						<path style="fill:#FFFFFF;" d="M2080.14,2916.341c-6.96,0-13.53,1.745-19.265,4.826c2.097,0.334,3.935,1.262,5.308,2.802
							c3.972,4.473,2.338,12.417-3.656,17.762c-6.013,5.327-14.087,6.032-18.058,1.559c-0.724-0.817-1.262-1.745-1.615-2.747
							c-2.283,5.067-3.545,10.709-3.545,16.629c0,10.969,4.324,20.936,11.377,28.285c-12.843-6.885-21.585-20.434-21.585-36.024
							c0-22.55,18.281-40.832,40.831-40.832c11.581,0,22.031,4.825,29.455,12.565
							C2093.652,2918.086,2087.1,2916.341,2080.14,2916.341z"/>
					</g>
					<g>
						<path style="fill:#371A45;" d="M2067.365,2996.19c-27.105,0-49.16-22.053-49.16-49.16c0-27.107,22.056-49.158,49.16-49.158
							c27.104,0,49.16,22.051,49.16,49.158C2116.525,2974.137,2094.469,2996.19,2067.365,2996.19z M2067.365,2914.527
							c-17.92,0-32.5,14.58-32.5,32.503c0,17.922,14.58,32.505,32.5,32.505c17.92,0,32.5-14.583,32.5-32.505
							C2099.865,2929.107,2085.284,2914.527,2067.365,2914.527z"/>
					</g>
				</g>
				<g>
					<g>
						<circle style="fill:#964557;" cx="2122.577" cy="3091.127" r="40.832"/>
					</g>
					<g style="opacity:0.55;">
						<path style="fill:#FFFFFF;" d="M2135.353,3060.438c-6.96,0-13.53,1.745-19.265,4.826c2.097,0.334,3.935,1.262,5.308,2.803
							c3.972,4.473,2.338,12.416-3.656,17.761c-6.013,5.327-14.087,6.032-18.059,1.559c-0.724-0.817-1.262-1.745-1.615-2.747
							c-2.283,5.067-3.545,10.709-3.545,16.629c0,10.969,4.324,20.936,11.377,28.285c-12.843-6.885-21.585-20.434-21.585-36.024
							c0-22.55,18.281-40.832,40.832-40.832c11.581,0,22.031,4.825,29.454,12.565
							C2148.865,3062.183,2142.313,3060.438,2135.353,3060.438z"/>
					</g>
					<g>
						<path style="fill:#371A45;" d="M2122.574,3140.287c-27.104,0-49.16-22.056-49.16-49.16s22.056-49.16,49.16-49.16
							c27.109,0,49.165,22.055,49.165,49.16S2149.684,3140.287,2122.574,3140.287z M2122.574,3058.626
							c-17.92,0-32.5,14.58-32.5,32.5c0,17.92,14.58,32.5,32.5,32.5c17.925,0,32.505-14.58,32.505-32.5
							C2155.079,3073.206,2140.499,3058.626,2122.574,3058.626z"/>
					</g>
				</g>
				<g style="opacity:0.3;">
					<path style="fill:#371A45;" d="M2388.431,2466.857l-95.339,685.152c-7.926,56.997-51.697,102.595-108.411,112.245
						c-83.373,14.204-204.341,18.81-287.663,13.767c39.731-2.393,79.513-6.973,119.27-13.767
						c56.74-9.649,100.511-55.248,108.462-112.245l82.936-596.169c0.438-35.948-13.406-66.621-49.844-88.983H2388.431z"/>
				</g>
				<g>
					<path style="fill:#371A45;" d="M1999.982,3295.614c-41.626,0-83.589-2.383-125.088-7.119
						c-20.557-2.324-41.489-5.302-62.212-8.848c-63.579-10.815-112.31-61.245-121.25-125.483l-97.808-702.927h812.749
						l-97.808,702.927c-8.936,64.238-57.666,114.668-121.26,125.488c-53.579,9.141-107.906,14.409-161.47,15.654
						C2017.238,3295.511,2008.614,3295.614,1999.982,3295.614z M1629.513,2482.476l92.866,667.38
						c7.051,50.689,45.454,90.469,95.561,98.994c20.151,3.452,40.498,6.343,60.483,8.604c48.706,5.562,98.042,7.798,146.68,6.621
						c52.055-1.211,104.858-6.333,156.953-15.22c50.117-8.53,88.516-48.31,95.562-98.999l92.866-667.38H1629.513z"/>
				</g>
				<g>
					<path style="fill:#371A45;" d="M2374.249,2362.398c-6.299,0-12.227-3.833-14.604-10.066l-37.529-98.545
						c-4.258-11.182-15.161-18.696-27.129-18.696h-589.976c-11.968,0-22.866,7.512-27.124,18.694l-37.529,98.548
						c-3.076,8.059-12.08,12.117-20.161,9.038c-8.062-3.069-12.104-12.095-9.038-20.156l37.529-98.545
						c8.843-23.218,31.475-38.818,56.323-38.818h589.976c24.844,0,47.48,15.598,56.323,38.816l37.534,98.547
						c3.066,8.062-0.977,17.087-9.038,20.156C2377.975,2362.066,2376.095,2362.398,2374.249,2362.398z"/>
				</g>
			</g>
			<g>
				<path style="fill:#FFFFFF;" d="M2154.471,1958.455c-72.016,116.159-230.263,117.547-308.942,0
					C1948.845,1915.435,2051.828,1915.152,2154.471,1958.455z"/>
				<defs>
					
						<filter id="Adobe_OpacityMaskFilter" filterUnits="userSpaceOnUse" x="1841.759" y="1923.728" width="316.377" height="124.869">
						<feFlood  style="flood-color:white;flood-opacity:1" result="back"/>
						<feBlend  in="SourceGraphic" in2="back" mode="normal"/>
					</filter>
				</defs>
				<mask maskUnits="userSpaceOnUse" x="1841.759" y="1923.728" width="316.377" height="124.869" id="SVGID_1_">
					<g style="filter:url(#Adobe_OpacityMaskFilter);">
						<defs>
							
								<filter id="Adobe_OpacityMaskFilter_00000080917704246095796910000013818374969017637303_" filterUnits="userSpaceOnUse" x="1841.759" y="1923.728" width="316.377" height="124.869">
								<feFlood  style="flood-color:white;flood-opacity:1" result="back"/>
								<feBlend  in="SourceGraphic" in2="back" mode="normal"/>
							</filter>
						</defs>
						<mask maskUnits="userSpaceOnUse" x="1841.759" y="1923.728" width="316.377" height="124.869" id="SVGID_1_">
							<g style="filter:url(#Adobe_OpacityMaskFilter_00000080917704246095796910000013818374969017637303_);">
							</g>
						</mask>
						
							<linearGradient id="SVGID_00000169518972271530392050000017584177936296863896_" gradientUnits="userSpaceOnUse" x1="2077.7766" y1="2043.09" x2="1924.9623" y2="1879.5643">
							<stop  offset="0" style="stop-color:#FFFFFF"/>
							<stop  offset="0.0884" style="stop-color:#F3F3F3"/>
							<stop  offset="0.2495" style="stop-color:#D2D2D2"/>
							<stop  offset="0.4654" style="stop-color:#9D9D9D"/>
							<stop  offset="0.7279" style="stop-color:#535353"/>
							<stop  offset="1" style="stop-color:#000000"/>
						</linearGradient>
						<path style="mask:url(#SVGID_1_);fill:url(#SVGID_00000169518972271530392050000017584177936296863896_);" d="
							M2001.847,2048.597c-62.969,0-120.547-32.209-158.394-88.75l-1.694-2.529l2.808-1.169
							c103.809-43.228,208.403-43.228,310.874,0.005l2.695,1.135l-1.543,2.485c-34.316,55.349-89.541,87.712-151.519,88.794
							C2004,2048.587,2002.916,2048.597,2001.847,2048.597z M1849.322,1959.593c37.549,54.482,94.077,85.103,155.664,83.975
							c59.317-1.033,112.29-31.582,145.791-83.945C2051.388,1918.46,1949.991,1918.455,1849.322,1959.593z"/>
					</g>
				</mask>
				
					<linearGradient id="SVGID_00000018210050254623852170000007795373617305794953_" gradientUnits="userSpaceOnUse" x1="2077.7766" y1="2043.09" x2="1924.9623" y2="1879.5643">
					<stop  offset="0" style="stop-color:#FFFFFF"/>
					<stop  offset="1" style="stop-color:#FFFFFF"/>
				</linearGradient>
				<path style="fill:url(#SVGID_00000018210050254623852170000007795373617305794953_);" d="M2001.847,2048.597
					c-62.969,0-120.547-32.209-158.394-88.75l-1.694-2.529l2.808-1.169c103.809-43.228,208.403-43.228,310.874,0.005l2.695,1.135
					l-1.543,2.485c-34.316,55.349-89.541,87.712-151.519,88.794C2004,2048.587,2002.916,2048.597,2001.847,2048.597z
					 M1849.322,1959.593c37.549,54.482,94.077,85.103,155.664,83.975c59.317-1.033,112.29-31.582,145.791-83.945
					C2051.388,1918.46,1949.991,1918.455,1849.322,1959.593z"/>
			</g>
			<g>
				<path style="fill:#371A45;" d="M2001.959,2061.725c-64.658,0-124.707-32.068-164.956-88.167
					c-5.029-7.009-3.423-16.768,3.584-21.797c7.012-5.042,16.767-3.425,21.797,3.584c34.58,48.193,85.967,75.347,140.903,75.134
					c52.763-0.425,101.064-26.682,132.515-72.041c4.912-7.087,14.648-8.855,21.738-3.936c7.09,4.917,8.852,14.648,3.935,21.738
					c-37.314,53.813-94.878,84.968-157.939,85.478C2003.014,2061.722,2002.486,2061.725,2001.959,2061.725z"/>
			</g>
			<g>
				<path style="fill:#371A45;" d="M2135.037,1894.144c9.106,14.694,12.263,26.255,15.776,37.48
					c1.028,2.698,1.653,5.517,2.397,8.265c1.023,2.597,1.514,5.5,2.666,8.04c2.124,5.165,4.834,10.171,8.765,14.03
					c7.534,8.207,17.793,12.415,28.252,16.574c1.338,0.486,2.576,1.217,3.97,1.663c1.399,0.435,2.783,0.947,4.185,1.439
					c1.387,0.559,2.795,1.058,4.194,1.69c1.445,0.488,2.925,1,4.395,1.627c5.83,2.928,12.004,5.92,18.987,12.722l0.188,0.184
					c1.375,1.339,1.404,3.538,0.063,4.911c-0.032,0.035-0.076,0.077-0.11,0.11c-6.941,6.509-14.724,9.784-22.695,10.581
					c-1.985,0.206-3.982,0.422-5.974,0.388c-2.002-0.118-3.992-0.37-6.006-0.563l-6.013-0.812c-1.997-0.338-3.982-0.989-5.957-1.556
					c-15.967-4.45-30.183-15.41-41.047-28.152c-5.515-6.383-10.183-13.36-14.351-20.582c-2.139-3.597-3.691-7.409-5.398-11.21
					c-1.492-3.836-2.488-7.811-3.416-11.791c-2.722-15.967-0.193-32.655,11.956-45.618c1.226-1.309,3.281-1.375,4.59-0.149
					c0.208,0.196,0.386,0.413,0.53,0.645L2135.037,1894.144z"/>
			</g>
			<g>
				<path style="fill:#371A45;" d="M2462.635,3005.048c-3.998,0.61-8.107,1.166-12.216,1.665c-1.666,0.222-3.331,0.444-5.053,0.611
					c-5.33,0.611-10.772,1.11-16.269,1.5c-199.502,0-266.687-122.711-223.877-208.941c1.555-3.276,3.387-6.552,5.33-9.717
					c1.666-2.721,3.442-5.331,5.386-7.94c2.054-2.943,4.275-5.775,6.663-8.551c1.499-1.776,3.054-3.442,4.719-5.163
					c1.61-1.722,3.276-3.387,4.998-4.997c16.157-15.214,37.146-27.708,62.854-35.814c3.942-1.333,7.996-2.499,12.16-3.443
					c20.1-5.109,42.699-7.662,67.796-7.052c16.879,0.389,34.87,2.221,53.97,5.664l4.775-18.379l83.954-324.71
					C2774.797,2607.988,2749.533,2959.572,2462.635,3005.048z"/>
			</g>
			<g style="opacity:0.55;">
				<g>
					<path style="fill:#FFFFFF;" d="M2527.976,2987.834c0,0,0.111,0,0.278-0.055c211.662-80.789,224.543-365.965,25.097-573.796
						l1.333-7.163l-8.773-6.829l0,0c-18.436,8.71-23.573,32.335-10.711,48.157c3.227,3.97,6.409,7.982,9.545,12.031
						C2666.899,2618.093,2718.593,2841.47,2527.976,2987.834z"/>
				</g>
				<g>
					<path style="fill:#371A45;" d="M2527.975,2990.335h-7.363l5.84-4.482c70.986-54.504,112.212-122.559,122.534-202.273
						c13.013-100.471-25.703-217.788-106.221-321.87c-3.12-4.035-6.294-8.03-9.507-11.985c-6.675-8.216-9.165-18.809-6.831-29.07
						c2.3-10.127,9.014-18.481,18.413-22.925l1.392-0.657l11.187,8.708l-1.377,7.398
						c110.815,115.981,162.236,265.464,134.214,390.383c-19.785,88.198-77.002,154.448-161.108,186.552L2527.975,2990.335z
						 M2545.621,2402.935c-7.29,3.919-12.476,10.703-14.321,18.828c-1.987,8.753,0.137,17.793,5.835,24.807
						c3.242,3.984,6.436,8.013,9.585,12.077c81.323,105.127,120.405,223.794,107.226,325.574
						c-9.819,75.821-47.075,141.23-110.805,194.654c73.828-33.433,124.087-95.505,142.231-176.406
						c27.739-123.64-23.54-271.836-133.823-386.755l-0.889-0.925l1.289-6.931L2545.621,2402.935z"/>
				</g>
			</g>
			<g>
				<path style="fill:#371A45;" d="M1866.45,1893.561c12.148,12.963,14.678,29.651,11.953,45.618
					c-0.928,3.981-1.921,7.955-3.413,11.791c-1.707,3.801-3.259,7.612-5.398,11.21c-4.167,7.222-8.835,14.199-14.351,20.582
					c-10.864,12.742-25.081,23.702-41.047,28.152c-1.975,0.568-3.96,1.219-5.957,1.556l-6.013,0.812
					c-2.014,0.192-4.004,0.444-6.006,0.563c-1.992,0.035-3.989-0.181-5.974-0.388c-7.971-0.797-15.754-4.072-22.695-10.581
					c-1.399-1.312-1.47-3.51-0.156-4.91c0.032-0.035,0.066-0.069,0.1-0.103l0.198-0.193c6.982-6.801,13.157-9.793,18.987-12.722
					c1.47-0.627,2.949-1.139,4.395-1.627c1.399-0.632,2.808-1.131,4.194-1.69c1.401-0.492,2.786-1.005,4.185-1.439
					c1.394-0.446,2.629-1.177,3.97-1.663c10.459-4.159,20.715-8.367,28.252-16.574c3.931-3.859,6.641-8.864,8.762-14.03
					c1.155-2.54,1.646-5.443,2.668-8.04c0.745-2.748,1.37-5.566,2.397-8.265c3.513-11.225,6.67-22.786,15.776-37.48l0.044-0.073
					c0.945-1.524,2.947-1.994,4.47-1.05C1866.035,1893.173,1866.262,1893.362,1866.45,1893.561z"/>
			</g>
			<g>
				<path style="fill:#371A45;" d="M2429.655,3024.447h-0.557c-107.49,0-191.44-35.977-230.332-98.704
					c-25.928-41.819-28.677-90.227-7.534-132.808c1.558-3.296,3.564-6.958,6.006-10.942c1.88-3.064,3.901-6.045,6.172-9.096
					c2.017-2.905,4.512-6.113,7.349-9.407c1.626-1.931,3.413-3.85,5.327-5.833c1.494-1.606,3.354-3.418,5.219-5.224
					c18.97-17.871,42.144-31.106,69.17-39.632c3.716-1.26,8.135-2.514,13.203-3.733c21.924-5.569,46.167-8.101,71.831-7.478
					l0.894-0.005c17.681,0.547,35.049-3.298,50.449-11.05c30.269-15.156,50.43-43.65,53.96-76.235
					c0.268-2.232,0.41-4.299,0.557-6.367c0.615-8.604,8.11-15.11,16.689-14.473c8.604,0.613,15.083,8.083,14.473,16.69
					c-0.186,2.6-0.376,5.195-0.688,7.729c-4.653,42.979-31.196,80.656-70.977,100.579c-19.995,10.059-42.466,15.031-64.927,14.36
					l-0.811,0.008c-23.174-0.55-44.6,1.65-63.95,6.57c-4.341,1.045-7.876,2.043-11.001,3.101
					c-22.813,7.197-41.939,18.062-57.153,32.39c-1.46,1.419-2.944,2.844-4.277,4.277c-1.606,1.663-2.935,3.074-4.209,4.583
					c-2.231,2.6-4.092,4.985-5.786,7.412c-1.987,2.683-3.486,4.895-4.878,7.163c-1.831,2.988-3.354,5.759-4.536,8.25
					c-16.353,32.939-14.126,70.283,5.981,102.71c33.003,53.233,107.056,83.806,203.223,83.924
					c5.156-0.374,10.215-0.845,15.044-1.399c1.807-0.178,3.291-0.379,4.771-0.576c4.131-0.503,8.081-1.035,11.919-1.624
					c106.343-16.855,180.234-78.396,207.979-173.274c39.775-136.028-23.34-302.8-160.796-424.873
					c-8.525-7.625-17.646-15.288-27.144-22.813c-6.763-5.357-7.905-15.181-2.549-21.944c5.366-6.758,15.19-7.896,21.943-2.544
					c9.985,7.908,19.585,15.974,28.535,23.977c146.401,130.017,213.145,309.402,169.995,456.963
					c-30.874,105.572-115.854,176.782-233.159,195.376c-4.238,0.647-8.511,1.228-12.779,1.746c-1.665,0.222-3.52,0.466-5.429,0.649
					c-5.171,0.598-10.869,1.123-16.665,1.533L2429.655,3024.447z"/>
			</g>
			<g>
				<path style="fill:#371A45;" d="M1568.848,3008.823c-5.497-0.389-10.938-0.889-16.269-1.5c-1.721-0.167-3.387-0.389-5.053-0.611
					c-4.109-0.5-8.218-1.055-12.216-1.665c-23.654-3.776-45.531-9.606-65.631-17.269
					c-211.662-80.789-224.543-365.965-25.097-573.796c11.161-11.66,22.987-23.099,35.536-34.204l9.661,37.257l74.292,287.453
					l4.609,17.657l0.167,0.722c19.101-3.442,37.091-5.275,53.971-5.664c25.097-0.611,47.696,1.943,67.796,7.052
					c4.164,0.943,8.218,2.11,12.16,3.443c25.708,8.106,46.697,20.6,62.854,35.814c1.721,1.61,3.387,3.275,4.997,4.997
					c1.666,1.721,3.221,3.387,4.72,5.163c2.387,2.776,4.609,5.608,6.663,8.551c1.944,2.61,3.72,5.22,5.386,7.94
					c1.943,3.165,3.776,6.441,5.33,9.717C1835.535,2886.112,1768.349,3008.823,1568.848,3008.823z"/>
			</g>
			<g style="opacity:0.55;">
				<g>
					<path style="fill:#FFFFFF;" d="M1469.958,2987.834c0,0-0.111,0-0.278-0.055c-211.662-80.789-224.543-365.965-25.097-573.796
						l-1.333-7.163l8.773-6.829l0,0c18.436,8.71,23.572,32.335,10.711,48.157c-3.227,3.97-6.409,7.982-9.545,12.031
						C1331.034,2618.093,1279.34,2841.47,1469.958,2987.834z"/>
				</g>
				<g>
					<path style="fill:#371A45;" d="M1477.316,2990.335l-8.438-0.188c-84.194-32.134-141.411-98.386-161.196-186.58
						c-28.022-124.919,23.398-274.404,134.209-390.388l-1.377-7.398l11.187-8.708l1.392,0.657
						c9.404,4.443,16.118,12.798,18.418,22.927c2.334,10.259-0.156,20.854-6.836,29.067c-3.213,3.955-6.387,7.949-9.507,11.985
						c-80.513,104.084-119.229,221.401-106.216,321.873c10.322,79.714,51.548,147.766,122.529,202.27L1477.316,2990.335z
						 M1445.983,2407.857l1.289,6.931l-0.889,0.925c-110.283,114.922-161.563,263.118-133.823,386.76
						c18.14,80.867,68.359,142.92,142.217,176.386c-63.721-53.42-100.967-118.821-110.786-194.636
						c-13.179-101.78,25.903-220.447,107.222-325.576c3.149-4.065,6.343-8.093,9.585-12.077c5.698-7.014,7.827-16.055,5.84-24.805
						c-1.846-8.125-7.031-14.912-14.326-18.831L1445.983,2407.857z"/>
				</g>
			</g>
			<g>
				<path style="fill:#371A45;" d="M1568.829,3024.447l-1.108-0.044c-5.801-0.41-11.504-0.938-16.943-1.563
					c-1.631-0.154-3.481-0.398-5.332-0.644c-4.087-0.493-8.355-1.072-12.51-1.707c-117.393-18.608-202.373-89.819-233.247-195.391
					c-43.149-147.563,23.599-326.946,170.044-456.999c8.901-7.966,18.501-16.035,28.491-23.943
					c6.768-5.354,16.592-4.219,21.943,2.552c5.356,6.763,4.214,16.587-2.549,21.941c-9.502,7.522-18.618,15.183-27.1,22.771
					c-137.505,122.112-200.62,288.885-160.845,424.912c27.744,94.875,101.636,156.419,208.066,173.289
					c3.755,0.571,7.7,1.106,11.65,1.584c1.665,0.222,3.145,0.422,4.673,0.571c5.093,0.581,10.156,1.052,15.322,1.428
					c96.172-0.117,170.225-30.691,203.228-83.926c20.103-32.427,22.329-69.768,6.104-102.451c-1.318-2.771-2.842-5.542-4.649-8.491
					c-1.401-2.283-2.9-4.494-4.604-6.782c-1.978-2.823-3.843-5.212-5.976-7.693c-1.367-1.618-2.686-3.025-4.102-4.482
					c-1.577-1.69-3.101-3.157-4.629-4.629c-15.068-14.192-34.194-25.056-56.699-32.153c-3.432-1.157-6.968-2.156-11.113-3.152
					c-19.551-4.966-40.981-7.173-63.765-6.623l-1.655,0.005c-22.061,0.657-44.468-4.309-64.492-14.38
					c-39.751-19.912-66.294-57.593-70.972-100.781c-0.283-2.341-0.479-4.927-0.664-7.514c-0.61-8.606,5.869-16.077,14.473-16.69
					c8.662-0.627,16.074,5.869,16.69,14.473c0.146,2.08,0.293,4.158,0.537,6.186c3.55,32.764,23.711,61.257,53.955,76.404
					c15.43,7.761,32.671,11.558,50.01,11.069l1.738-0.007c25.318-0.61,49.536,1.914,71.646,7.532
					c4.873,1.169,9.292,2.424,13.315,3.784c26.719,8.425,49.893,21.66,68.56,39.241c2.065,1.995,3.979,3.857,5.713,5.713
					c1.719,1.775,3.506,3.699,5.234,5.75c2.725,3.167,5.22,6.367,7.529,9.673c1.997,2.671,4.018,5.652,5.903,8.731
					c2.388,3.892,4.453,7.659,6.123,11.184c21.016,42.322,18.271,90.727-7.656,132.546
					C1760.275,2988.468,1676.319,3024.447,1568.829,3024.447z"/>
			</g>
		</g>
	</g>
</g>
</svg>
